<?xml version="1.0" encoding="utf-8"?>
<!-- Generator: Adobe Illustrator 16.0.0, SVG Export Plug-In . SVG Version: 6.00 Build 0)  -->
<!DOCTYPE svg PUBLIC "-//W3C//DTD SVG 1.1//EN" "http://www.w3.org/Graphics/SVG/1.1/DTD/svg11.dtd">
<svg version="1.1" id="Layer_1" xmlns="http://www.w3.org/2000/svg" xmlns:xlink="http://www.w3.org/1999/xlink" x="0px" y="0px"
	 width="412.531px" height="358.359px" viewBox="0 0 412.531 358.359" enable-background="new 0 0 412.531 358.359"
	 xml:space="preserve">
<g>
	<path fill="#FFFFFF" d="M357.227,68.453l-43.293-0.227l-41.48-61.879C269.961,2.492,265.652,0,261.121,0H149.375
		c-4.535,0-8.613,2.492-11.109,6.121l-42.84,62.105l-40.117,0.227C24.934,68.453,0,93.387,0,123.758v178.84
		c0,30.375,24.934,55.762,55.305,55.762h301.921c30.375,0,55.305-25.387,55.305-55.762v-178.84
		C412.535,93.387,387.602,68.453,357.227,68.453L357.227,68.453z M385.332,302.598c0,15.414-12.691,28.563-28.105,28.563H55.309
		c-15.414,0-28.11-13.148-28.11-28.563v-178.84c0-15.414,12.696-28.106,28.11-28.106h47.371c4.535,0,8.613-2.492,11.109-6.121
		l42.84-62.105h97.238l41.254,61.652c2.492,3.629,6.801,6.121,11.105,6.121L357,95.652c15.414,0,28.105,12.695,28.105,28.11v178.84
		h0.227V302.598z M385.332,302.598"/>
	<path fill="#FFFFFF" d="M207.398,101.094c-53.266,0-96.333,43.293-96.333,96.332s43.293,96.332,96.333,96.332
		c53.043,0,96.336-43.293,96.336-96.332S260.441,101.094,207.398,101.094L207.398,101.094z M207.398,266.559
		c-38.079,0-69.132-31.055-69.132-69.133c0-38.082,31.054-69.133,69.132-69.133c38.082,0,69.137,31.051,69.137,69.133
		C276.535,235.504,245.48,266.559,207.398,266.559L207.398,266.559z M207.398,266.559"/>
	<path fill="#FFFFFF" d="M341.586,140.988c0,2.879-2.332,5.211-5.211,5.211s-5.215-2.332-5.215-5.211
		c0-2.883,2.336-5.215,5.215-5.215S341.586,138.105,341.586,140.988L341.586,140.988z M341.586,140.988"/>
	<path fill="#FFFFFF" d="M336.375,122.172c-10.43,0-18.816,8.386-18.816,18.816c0,10.426,8.387,18.813,18.816,18.813
		c10.426,0,18.813-8.387,18.813-18.813C355.188,130.558,346.801,122.172,336.375,122.172L336.375,122.172z M336.375,149.371
		c-4.762,0-8.387-3.852-8.387-8.383c0-4.535,3.852-8.387,8.387-8.387c4.531,0,8.387,3.852,8.387,8.387
		C344.762,145.519,341.133,149.371,336.375,149.371L336.375,149.371z M336.375,149.371"/>
</g>
</svg>
