<?xml version="1.0" encoding="utf-8"?>
<!-- Generator: Adobe Illustrator 16.0.0, SVG Export Plug-In . SVG Version: 6.00 Build 0)  -->
<!DOCTYPE svg PUBLIC "-//W3C//DTD SVG 1.1//EN" "http://www.w3.org/Graphics/SVG/1.1/DTD/svg11.dtd">
<svg version="1.1" id="Layer_1" xmlns="http://www.w3.org/2000/svg" xmlns:xlink="http://www.w3.org/1999/xlink" x="0px" y="0px"
	 width="71px" height="85.832px" viewBox="0 0 71 85.832" enable-background="new 0 0 71 85.832" xml:space="preserve">
<g>
	<path fill="#fff" d="M68.804,71.657c-1.551-2.271-3.716-3.851-6.26-4.563c-0.056-0.016-0.112-0.027-0.169-0.036l-9.571-1.436l-2.799-4.198
		c-0.264-0.396-0.699-0.616-1.149-0.619c-0.087-0.961-0.1-1.969-0.1-2.945c2.077-2.142,3.709-4.78,4.731-7.736
		c0.425,0.075,0.856,0.114,1.293,0.114c4.037,0,7.322-3.285,7.322-7.322c0-0.222-0.012-0.442-0.036-0.667
		c2.663-1.126,4.484-3.778,4.484-6.748c0-1.974-0.807-3.834-2.189-5.19c1.383-1.356,2.189-3.216,2.189-5.191
		c0-3.328-2.23-6.144-5.276-7.032c0.539-1.026,0.828-2.171,0.828-3.349c0-4.038-3.285-7.323-7.323-7.323
		c-0.563,0-1.122,0.068-1.672,0.201c-0.569-3.474-3.593-6.133-7.226-6.133c-1.633,0-3.206,0.557-4.478,1.544
		C40.052,1.161,37.87,0,35.5,0c-2.37,0-4.551,1.161-5.904,3.027c-1.27-0.988-2.844-1.544-4.477-1.544
		c-3.632,0-6.656,2.659-7.225,6.133c-0.549-0.133-1.111-0.201-1.673-0.201c-4.038,0-7.323,3.285-7.323,7.323
		c0,1.178,0.29,2.323,0.827,3.349c-3.044,0.888-5.276,3.704-5.276,7.032c0,1.975,0.809,3.835,2.19,5.191
		c-1.382,1.356-2.19,3.216-2.19,5.19c0,2.97,1.821,5.622,4.485,6.747c-0.023,0.226-0.036,0.447-0.036,0.668
		c0,4.037,3.285,7.322,7.323,7.322c0.437,0,0.868-0.039,1.292-0.114c1.022,2.956,2.655,5.595,4.732,7.735
		c-0.001,0.978-0.015,1.986-0.101,2.946c-0.45,0.003-0.886,0.224-1.149,0.618l-2.798,4.199l-9.571,1.436
		c-0.058,0.008-0.114,0.021-0.169,0.036c-2.544,0.712-4.709,2.291-6.261,4.563C0.78,73.732,0,76.236,0,78.708v2.778
		c0,2.396,2.137,4.344,4.763,4.344h20.35c0.001,0,0.003,0.001,0.004,0.001c0.001,0,0.001-0.001,0.003-0.001H45.88
		c0.001,0,0.002,0.001,0.003,0.001s0.003-0.001,0.004-0.001h20.351c2.627,0,4.763-1.948,4.763-4.344v-2.778
		C71,76.236,70.221,73.732,68.804,71.657L68.804,71.657z M39.853,83.049c0.001-0.03,0.004-0.061,0.004-0.092
		c0-2.402-1.954-4.356-4.356-4.356s-4.357,1.954-4.357,4.356c0,0.031,0.003,0.062,0.006,0.092h-4.89l-2.055-10.274l4.459,3.822
		c0.253,0.218,0.574,0.335,0.905,0.335c0.042,0,0.086-0.002,0.129-0.006c0.375-0.035,0.721-0.221,0.956-0.516l4.846-6.058
		l4.847,6.058c0.236,0.295,0.581,0.48,0.955,0.516c0.044,0.004,0.087,0.006,0.131,0.006c0.33,0,0.651-0.117,0.904-0.335l4.46-3.822
		l-2.055,10.274H39.853z M37.08,83.049h-3.161c0.003-0.03,0.005-0.061,0.005-0.092c0-0.869,0.707-1.576,1.575-1.576
		c0.869,0,1.576,0.707,1.576,1.576C37.076,82.989,37.079,83.019,37.08,83.049L37.08,83.049z M19.094,42.928V34.03
		c0-2.504,2.038-4.542,4.542-4.542h23.729c2.505,0,4.542,2.038,4.542,4.542v8.898c0,9.864-7.36,17.89-16.406,17.89
		C26.454,60.818,19.094,52.792,19.094,42.928L19.094,42.928z M35.5,63.598c3.884,0,7.501-1.251,10.525-3.396
		c0.029,0.557,0.075,1.113,0.149,1.659L35.5,66.605l-10.674-4.744c0.074-0.546,0.119-1.103,0.149-1.659
		C28,62.347,31.617,63.598,35.5,63.598L35.5,63.598z M49.974,66.39l-8.354,7.16l-3.909-4.885l10.63-4.725L49.974,66.39z
		 M16.221,47.458c-2.505,0-4.542-2.038-4.542-4.542c0-0.369,0.063-0.761,0.199-1.234c0.105-0.371,0.052-0.768-0.147-1.099
		c-0.199-0.33-0.526-0.562-0.903-0.643c-2.083-0.441-3.597-2.308-3.597-4.44c0-1.646,0.916-3.167,2.391-3.969
		c0.447-0.244,0.725-0.712,0.725-1.221c0-0.509-0.278-0.978-0.725-1.221c-1.475-0.803-2.391-2.323-2.391-3.97
		c0-2.504,2.038-4.542,4.542-4.542c0.059,0,0.157,0.014,0.26,0.027c0.076,0.011,0.152,0.021,0.229,0.029
		c0.607,0.067,1.188-0.272,1.429-0.834c0.241-0.561,0.086-1.216-0.381-1.609c-1.036-0.875-1.631-2.134-1.631-3.452
		c0-2.504,2.038-4.542,4.542-4.542c0.814,0,1.599,0.226,2.334,0.67c0.46,0.279,1.042,0.266,1.49-0.033s0.685-0.829,0.604-1.362
		l-0.007-0.048c-0.034-0.235-0.065-0.439-0.065-0.618c0-2.504,2.038-4.542,4.542-4.542c1.47,0,2.812,0.694,3.68,1.903
		c0.303,0.42,0.811,0.638,1.326,0.565c0.512-0.073,0.941-0.424,1.114-0.913c0.642-1.816,2.354-3.038,4.261-3.038
		c1.907,0,3.62,1.221,4.262,3.038c0.173,0.489,0.602,0.84,1.114,0.913c0.513,0.073,1.023-0.145,1.325-0.565
		c0.87-1.209,2.211-1.903,3.681-1.903c2.504,0,4.542,2.038,4.542,4.542c0,0.178-0.031,0.38-0.065,0.616l-0.008,0.051
		c-0.079,0.533,0.157,1.063,0.605,1.361s1.029,0.312,1.489,0.033c0.734-0.444,1.521-0.67,2.334-0.67
		c2.505,0,4.542,2.038,4.542,4.542c0,1.318-0.595,2.576-1.631,3.452c-0.467,0.395-0.622,1.048-0.38,1.61
		c0.24,0.562,0.818,0.902,1.428,0.834c0.077-0.008,0.153-0.018,0.23-0.029c0.103-0.014,0.2-0.027,0.26-0.027
		c2.504,0,4.542,2.038,4.542,4.542c0,1.646-0.916,3.167-2.39,3.969c-0.448,0.244-0.727,0.712-0.727,1.221
		c0,0.51,0.278,0.978,0.727,1.221c1.474,0.802,2.39,2.323,2.39,3.969c0,2.132-1.513,3.999-3.598,4.44
		c-0.376,0.081-0.703,0.312-0.902,0.643c-0.199,0.33-0.251,0.728-0.146,1.098c0.135,0.475,0.197,0.867,0.197,1.235
		c0,2.504-2.037,4.542-4.542,4.542c-0.185,0-0.368-0.016-0.551-0.037c0.299-1.446,0.458-2.95,0.458-4.492V34.03
		c0-4.038-3.284-7.323-7.322-7.323H23.636c-4.038,0-7.323,3.285-7.323,7.323v8.898c0,1.542,0.159,3.046,0.458,4.492
		C16.589,47.442,16.406,47.458,16.221,47.458L16.221,47.458z M22.659,63.941l10.629,4.725l-3.908,4.885l-8.354-7.16L22.659,63.941z
		 M2.781,81.487v-2.778c0-3.524,2.18-7.701,6.346-8.914l9.872-1.481l1.785,1.531c0.002,0.013,0.003,0.025,0.005,0.038l2.634,13.167
		H4.763C3.688,83.049,2.781,82.334,2.781,81.487L2.781,81.487z M68.22,81.487c0,0.848-0.907,1.563-1.982,1.563H47.578l2.633-13.166
		c0.003-0.014,0.004-0.026,0.006-0.039l1.785-1.531l9.871,1.481c4.168,1.213,6.347,5.39,6.347,8.914V81.487z M68.22,81.487"/>
	<path fill="#fff" d="M35.5,54.687c4.038,0,7.323-3.285,7.323-7.323c0-4.037-3.285-7.322-7.323-7.322c-4.037,0-7.322,3.285-7.322,7.322
		C28.178,51.402,31.463,54.687,35.5,54.687L35.5,54.687z M35.5,42.823c2.505,0,4.542,2.037,4.542,4.541
		c0,2.505-2.037,4.542-4.542,4.542c-2.504,0-4.541-2.037-4.541-4.542C30.959,44.86,32.997,42.823,35.5,42.823L35.5,42.823z
		 M35.5,42.823"/>
	<path fill="#fff" d="M26.602,41.339c0.768,0,1.391-0.622,1.391-1.391v-1.482c0-0.768-0.623-1.391-1.391-1.391c-0.769,0-1.39,0.623-1.39,1.391
		v1.482C25.212,40.717,25.834,41.339,26.602,41.339L26.602,41.339z M26.602,41.339"/>
	<path fill="#fff" d="M44.398,41.339c0.768,0,1.391-0.622,1.391-1.391v-1.482c0-0.768-0.623-1.391-1.391-1.391c-0.769,0-1.39,0.623-1.39,1.391
		v1.482C43.009,40.717,43.63,41.339,44.398,41.339L44.398,41.339z M44.398,41.339"/>
</g>
</svg>
