<?xml version="1.0" encoding="utf-8"?>
<!-- Generator: Adobe Illustrator 16.0.0, SVG Export Plug-In . SVG Version: 6.00 Build 0)  -->
<!DOCTYPE svg PUBLIC "-//W3C//DTD SVG 1.1//EN" "http://www.w3.org/Graphics/SVG/1.1/DTD/svg11.dtd">
<svg version="1.1" id="Layer_1" xmlns="http://www.w3.org/2000/svg" xmlns:xlink="http://www.w3.org/1999/xlink" x="0px" y="0px"
	 width="87px" height="87.032px" viewBox="262.501 352.484 87 87.032" enable-background="new 262.501 352.484 87 87.032"
	 xml:space="preserve">
<path fill="#fff" d="M340.07,417.256l-1.33-0.7l1.143-0.977c2.686-2.296,4.225-5.628,4.225-9.142c0-6.633-5.396-12.029-12.028-12.029
	c-6.631,0-12.027,5.395-12.029,12.026h-2.037c-0.002-6.632-5.397-12.026-12.029-12.026c-6.632,0-12.029,5.396-12.029,12.029
	c0,3.52,1.544,6.855,4.236,9.151l1.141,0.974l-1.326,0.702c-1.593,0.843-3.042,1.929-4.307,3.227l-0.73,0.749l-0.729-0.749
	c-1.27-1.305-2.734-2.395-4.351-3.241l-1.333-0.698l1.143-0.979c2.681-2.296,4.218-5.625,4.218-9.136
	c0-6.633-5.396-12.029-12.029-12.029s-12.029,5.396-12.029,12.029c0,3.514,1.54,6.846,4.225,9.142l1.142,0.977l-1.33,0.7
	c-5.795,3.046-9.396,8.967-9.396,15.451v5.219c0,0.431,0.162,0.833,0.455,1.132c0.291,0.296,0.682,0.459,1.101,0.459h83.854
	c0.877,0,1.591-0.714,1.591-1.591v-5.219C349.501,426.233,345.888,420.313,340.07,417.256z M332.079,397.59
	c4.878,0,8.847,3.969,8.847,8.848c0,4.878-3.969,8.847-8.847,8.847c-4.879,0-8.848-3.969-8.848-8.847
	C323.231,401.559,327.2,397.59,332.079,397.59z M320.05,406.443c0.002,3.508,1.539,6.836,4.219,9.13l1.143,0.979l-1.333,0.698
	c-1.617,0.847-3.081,1.937-4.351,3.241l-0.729,0.749l-0.73-0.749c-1.266-1.298-2.715-2.384-4.307-3.227l-1.326-0.702l1.142-0.974
	c2.69-2.295,4.234-5.628,4.236-9.146H320.05z M297.136,406.438c0-2.36,0.921-4.581,2.594-6.254s3.894-2.594,6.253-2.594
	c4.879,0,8.848,3.969,8.848,8.848c0,4.878-3.969,8.847-8.848,8.847C301.105,415.284,297.136,411.315,297.136,406.438z
	 M271.041,406.438c0-4.879,3.969-8.848,8.847-8.848s8.848,3.969,8.848,8.848c0,4.878-3.969,8.847-8.848,8.847
	S271.041,411.315,271.041,406.438z M290.739,424.565c-1.306,2.484-1.969,5.224-1.969,8.142v3.628h-23.123v-3.628
	c0-7.72,6.521-14.24,14.24-14.24c4.139,0,8.049,1.81,10.726,4.966l0.445,0.524L290.739,424.565z M291.917,436.335v-3.628
	c0-7.853,6.31-14.24,14.066-14.24c7.775,0,14.102,6.388,14.102,14.24v3.628H291.917z M346.354,436.335h-23.123v-3.628
	c0-2.833-0.692-5.648-2.003-8.142l-0.32-0.608l0.445-0.524c2.677-3.156,6.586-4.966,10.726-4.966c7.738,0,14.275,6.521,14.275,14.24
	V436.335z"/>
<path fill="#fff" d="M295.775,374.787l-1.801,10.505c-0.081,0.469,0.041,0.925,0.342,1.282c0.308,0.364,0.767,0.582,1.229,0.582
	c0.252,0,0.5-0.063,0.737-0.188l9.434-4.96l9.435,4.96c0.236,0.125,0.484,0.188,0.737,0.188h0.001c0.462,0,0.922-0.217,1.229-0.582
	c0.301-0.357,0.422-0.812,0.342-1.283l-1.802-10.505l7.633-7.44c0.441-0.431,0.591-1.041,0.399-1.63
	c-0.191-0.589-0.671-0.994-1.281-1.083l-10.542-1.532l-4.719-9.724c-0.271-0.56-0.807-0.894-1.431-0.894s-1.16,0.334-1.431,0.894
	l-4.72,9.724l-10.541,1.532c-0.611,0.089-1.09,0.494-1.282,1.083c-0.191,0.59-0.042,1.199,0.4,1.63L295.775,374.787z
	 M300.857,366.128c0.522-0.076,0.972-0.405,1.202-0.879l3.656-7.534l3.656,7.534c0.23,0.475,0.68,0.804,1.202,0.879l8.187,1.189
	l-5.924,5.774c-0.375,0.365-0.546,0.892-0.457,1.408l1.398,8.152l-7.322-3.849c-0.455-0.239-1.026-0.239-1.48,0l-7.322,3.849
	l1.398-8.152c0.088-0.517-0.083-1.043-0.458-1.408l-5.923-5.774L300.857,366.128z"/>
</svg>
