<?xml version="1.0" encoding="utf-8"?>
<!-- Generator: Adobe Illustrator 16.0.0, SVG Export Plug-In . SVG Version: 6.00 Build 0)  -->
<!DOCTYPE svg PUBLIC "-//W3C//DTD SVG 1.1//EN" "http://www.w3.org/Graphics/SVG/1.1/DTD/svg11.dtd">
<svg version="1.1" id="Layer_1" xmlns="http://www.w3.org/2000/svg" xmlns:xlink="http://www.w3.org/1999/xlink" x="0px" y="0px"
	 width="49.047px" height="49.046px" viewBox="0 0 49.047 49.046" enable-background="new 0 0 49.047 49.046" xml:space="preserve">
<g>
	<defs>
		<rect id="SVGID_1_" y="0" width="49.047" height="49.046"/>
	</defs>
	<clipPath id="SVGID_2_">
		<use xlink:href="#SVGID_1_"  overflow="visible"/>
	</clipPath>
	<path clip-path="url(#SVGID_2_)" fill="#2D2D2D" d="M47.546,46.544H1.501c-0.553,0-1.001,0.449-1.001,1.001
		s0.448,1.001,1.001,1.001h46.045c0.553,0,1.001-0.449,1.001-1.001S48.099,46.544,47.546,46.544"/>
	<path clip-path="url(#SVGID_2_)" fill="none" stroke="#2D2D2D" stroke-miterlimit="10" d="M47.546,46.544H1.501
		c-0.553,0-1.001,0.449-1.001,1.001s0.448,1.001,1.001,1.001h46.045c0.553,0,1.001-0.449,1.001-1.001S48.099,46.544,47.546,46.544z"
		/>
	<path clip-path="url(#SVGID_2_)" fill="#2D2D2D" d="M9.509,34.533H3.504c-0.554,0-1.002,0.448-1.002,1.002v12.011
		c0,0.552,0.448,1.001,1.002,1.001h6.005c0.553,0,1.001-0.449,1.001-1.001V35.535C10.51,34.98,10.062,34.533,9.509,34.533
		 M8.508,46.544H4.504V36.536h4.004V46.544z"/>
	<path clip-path="url(#SVGID_2_)" fill="none" stroke="#2D2D2D" stroke-miterlimit="10" d="M9.509,34.533H3.504
		c-0.554,0-1.002,0.448-1.002,1.002v12.011c0,0.552,0.448,1.001,1.002,1.001h6.005c0.553,0,1.001-0.449,1.001-1.001V35.535
		C10.51,34.98,10.062,34.533,9.509,34.533z M8.508,46.544H4.504V36.536h4.004V46.544z"/>
	<path clip-path="url(#SVGID_2_)" fill="#2D2D2D" d="M21.521,24.522h-6.006c-0.553,0-1.001,0.45-1.001,1.001v22.021
		c0,0.552,0.448,1.001,1.001,1.001h6.006c0.552,0,1.001-0.449,1.001-1.001V25.524C22.522,24.972,22.073,24.522,21.521,24.522
		 M20.52,46.544h-4.004v-20.02h4.004V46.544z"/>
	<path clip-path="url(#SVGID_2_)" fill="none" stroke="#2D2D2D" stroke-miterlimit="10" d="M21.521,24.522h-6.006
		c-0.553,0-1.001,0.45-1.001,1.001v22.021c0,0.552,0.448,1.001,1.001,1.001h6.006c0.552,0,1.001-0.449,1.001-1.001V25.524
		C22.522,24.972,22.073,24.522,21.521,24.522z M20.52,46.544h-4.004v-20.02h4.004V46.544z"/>
	<path clip-path="url(#SVGID_2_)" fill="#2D2D2D" d="M33.532,28.527h-6.007c-0.552,0-1,0.448-1,1.002v18.017
		c0,0.552,0.448,1.001,1,1.001h6.007c0.553,0,1.001-0.449,1.001-1.001V29.529C34.533,28.975,34.085,28.527,33.532,28.527
		 M32.531,46.544h-4.004V30.529h4.004V46.544z"/>
	<path clip-path="url(#SVGID_2_)" fill="none" stroke="#2D2D2D" stroke-miterlimit="10" d="M33.532,28.527h-6.007
		c-0.552,0-1,0.448-1,1.002v18.017c0,0.552,0.448,1.001,1,1.001h6.007c0.553,0,1.001-0.449,1.001-1.001V29.529
		C34.533,28.975,34.085,28.527,33.532,28.527z M32.531,46.544h-4.004V30.529h4.004V46.544z"/>
	<path clip-path="url(#SVGID_2_)" fill="#2D2D2D" d="M45.544,16.516h-6.007c-0.551,0-1,0.448-1,1.001v30.029
		c0,0.552,0.449,1.001,1,1.001h6.007c0.552,0,1.001-0.449,1.001-1.001V17.517C46.545,16.963,46.096,16.516,45.544,16.516
		 M44.543,46.544h-4.004V18.519h4.004V46.544z"/>
	<path clip-path="url(#SVGID_2_)" fill="none" stroke="#2D2D2D" stroke-miterlimit="10" d="M45.544,16.516h-6.007
		c-0.551,0-1,0.448-1,1.001v30.029c0,0.552,0.449,1.001,1,1.001h6.007c0.552,0,1.001-0.449,1.001-1.001V17.517
		C46.545,16.963,46.096,16.516,45.544,16.516z M44.543,46.544h-4.004V18.519h4.004V46.544z"/>
	<path clip-path="url(#SVGID_2_)" fill="#2D2D2D" d="M6.506,18.518c-2.208,0-4.004,1.796-4.004,4.004s1.796,4.004,4.004,4.004
		s4.004-1.796,4.004-4.004S8.714,18.518,6.506,18.518 M6.506,24.522c-1.104,0-2.002-0.898-2.002-2.001
		c0-1.104,0.898-2.002,2.002-2.002c1.105,0,2.002,0.899,2.002,2.002S7.611,24.522,6.506,24.522"/>
	<path clip-path="url(#SVGID_2_)" fill="none" stroke="#2D2D2D" stroke-miterlimit="10" d="M6.506,18.518
		c-2.208,0-4.004,1.796-4.004,4.004s1.796,4.004,4.004,4.004s4.004-1.796,4.004-4.004S8.714,18.518,6.506,18.518z M6.506,24.522
		c-1.104,0-2.002-0.898-2.002-2.001c0-1.104,0.898-2.002,2.002-2.002c1.105,0,2.002,0.899,2.002,2.002S7.611,24.522,6.506,24.522z"
		/>
	<path clip-path="url(#SVGID_2_)" fill="#2D2D2D" d="M18.518,8.507c-2.209,0-4.004,1.796-4.004,4.004s1.795,4.004,4.004,4.004
		c2.208,0,4.004-1.796,4.004-4.004S20.726,8.507,18.518,8.507 M18.518,14.513c-1.105,0-2.002-0.899-2.002-2.002
		c0-1.102,0.897-2.002,2.002-2.002s2.002,0.9,2.002,2.002C20.52,13.614,19.623,14.513,18.518,14.513"/>
	<path clip-path="url(#SVGID_2_)" fill="none" stroke="#2D2D2D" stroke-miterlimit="10" d="M18.518,8.507
		c-2.209,0-4.004,1.796-4.004,4.004s1.795,4.004,4.004,4.004c2.208,0,4.004-1.796,4.004-4.004S20.726,8.507,18.518,8.507z
		 M18.518,14.513c-1.105,0-2.002-0.899-2.002-2.002c0-1.102,0.897-2.002,2.002-2.002s2.002,0.9,2.002,2.002
		C20.52,13.614,19.623,14.513,18.518,14.513z"/>
	<path clip-path="url(#SVGID_2_)" fill="#2D2D2D" d="M30.529,12.512c-2.208,0-4.004,1.796-4.004,4.004s1.796,4.003,4.004,4.003
		c2.207,0,4.004-1.795,4.004-4.003S32.736,12.512,30.529,12.512 M30.529,18.518c-1.105,0-2.002-0.899-2.002-2.002
		s0.896-2.002,2.002-2.002c1.104,0,2.002,0.899,2.002,2.002S31.633,18.518,30.529,18.518"/>
	<path clip-path="url(#SVGID_2_)" fill="none" stroke="#2D2D2D" stroke-miterlimit="10" d="M30.529,12.512
		c-2.208,0-4.004,1.796-4.004,4.004s1.796,4.003,4.004,4.003c2.207,0,4.004-1.795,4.004-4.003S32.736,12.512,30.529,12.512z
		 M30.529,18.518c-1.105,0-2.002-0.899-2.002-2.002s0.896-2.002,2.002-2.002c1.104,0,2.002,0.899,2.002,2.002
		S31.633,18.518,30.529,18.518z"/>
	<path clip-path="url(#SVGID_2_)" fill="#2D2D2D" d="M42.541,0.5c-2.208,0-4.004,1.795-4.004,4.003s1.796,4.003,4.004,4.003
		s4.004-1.795,4.004-4.003S44.749,0.5,42.541,0.5 M42.541,6.505c-1.104,0-2.002-0.899-2.002-2.002s0.897-2.002,2.002-2.002
		s2.002,0.9,2.002,2.002C44.543,5.606,43.646,6.505,42.541,6.505"/>
	<path clip-path="url(#SVGID_2_)" fill="none" stroke="#2D2D2D" stroke-miterlimit="10" d="M42.541,0.5
		c-2.208,0-4.004,1.795-4.004,4.003s1.796,4.003,4.004,4.003s4.004-1.795,4.004-4.003S44.749,0.5,42.541,0.5z M42.541,6.505
		c-1.104,0-2.002-0.899-2.002-2.002s0.897-2.002,2.002-2.002s2.002,0.9,2.002,2.002C44.543,5.606,43.646,6.505,42.541,6.505z"/>
	<path clip-path="url(#SVGID_2_)" fill="#2D2D2D" d="M41.127,5.917c-0.391-0.391-1.024-0.391-1.415,0l-7.767,7.767
		c-0.391,0.39-0.391,1.025,0,1.416c0.195,0.194,0.453,0.293,0.708,0.293s0.511-0.097,0.706-0.293l7.768-7.768
		C41.518,6.942,41.518,6.307,41.127,5.917"/>
	<path clip-path="url(#SVGID_2_)" fill="none" stroke="#2D2D2D" stroke-miterlimit="10" d="M41.127,5.917
		c-0.391-0.391-1.024-0.391-1.415,0l-7.767,7.767c-0.391,0.39-0.391,1.025,0,1.416c0.195,0.194,0.453,0.293,0.708,0.293
		s0.511-0.097,0.706-0.293l7.768-7.768C41.518,6.942,41.518,6.307,41.127,5.917z"/>
	<path clip-path="url(#SVGID_2_)" fill="#2D2D2D" d="M28.108,14.205l-6.43-1.833c-0.538-0.157-1.085,0.155-1.235,0.687
		c-0.152,0.533,0.156,1.086,0.686,1.238l6.43,1.833c0.093,0.027,0.185,0.038,0.274,0.038c0.437,0,0.836-0.286,0.963-0.726
		C28.949,14.912,28.642,14.357,28.108,14.205"/>
	<path clip-path="url(#SVGID_2_)" fill="none" stroke="#2D2D2D" stroke-miterlimit="10" d="M28.108,14.205l-6.43-1.833
		c-0.538-0.157-1.085,0.155-1.235,0.687c-0.152,0.533,0.156,1.086,0.686,1.238l6.43,1.833c0.093,0.027,0.185,0.038,0.274,0.038
		c0.437,0,0.836-0.286,0.963-0.726C28.949,14.912,28.642,14.357,28.108,14.205z"/>
	<path clip-path="url(#SVGID_2_)" fill="#2D2D2D" d="M16.955,13.759c-0.344-0.433-0.972-0.503-1.404-0.161l-7.548,6.018
		c-0.432,0.347-0.504,0.975-0.158,1.407c0.198,0.249,0.491,0.378,0.783,0.378c0.218,0,0.438-0.073,0.623-0.217l7.547-6.018
		C17.23,14.82,17.303,14.191,16.955,13.759"/>
	<path clip-path="url(#SVGID_2_)" fill="none" stroke="#2D2D2D" stroke-miterlimit="10" d="M16.955,13.759
		c-0.344-0.433-0.972-0.503-1.404-0.161l-7.548,6.018c-0.432,0.347-0.504,0.975-0.158,1.407c0.198,0.249,0.491,0.378,0.783,0.378
		c0.218,0,0.438-0.073,0.623-0.217l7.547-6.018C17.23,14.82,17.303,14.191,16.955,13.759z"/>
</g>
</svg>
