<?xml version="1.0" encoding="utf-8"?>
<!-- Generator: Adobe Illustrator 16.0.0, SVG Export Plug-In . SVG Version: 6.00 Build 0)  -->
<!DOCTYPE svg PUBLIC "-//W3C//DTD SVG 1.1//EN" "http://www.w3.org/Graphics/SVG/1.1/DTD/svg11.dtd">
<svg version="1.1" id="Layer_1" xmlns="http://www.w3.org/2000/svg" xmlns:xlink="http://www.w3.org/1999/xlink" x="0px" y="0px"
	 width="50.014px" height="50.968px" viewBox="0 0 50.014 50.968" enable-background="new 0 0 50.014 50.968" xml:space="preserve">
<g>
	<g id="thumb-up_1_">
		<path fill="#FFFFFF" d="M0,50.968h9.094V20.389H0V50.968z M50.014,22.936c0-2.802-2.047-5.097-4.546-5.097H31.146l2.272-11.723
			c0-0.255,0-0.509,0-0.763c0-1.021-0.456-2.041-0.909-2.805L30.008,0L15.005,16.82c-0.909,0.764-1.364,2.039-1.364,3.568v25.482
			c0,2.805,2.045,5.097,4.545,5.097h20.462c1.818,0,3.41-1.272,4.092-3.058l6.82-18.094c0.227-0.51,0.227-1.274,0.227-1.783
			L50.014,22.936L50.014,22.936C50.014,23.19,50.014,22.936,50.014,22.936z"/>
	</g>
</g>
</svg>
