<?xml version="1.0" encoding="utf-8"?>
<!-- Generator: Adobe Illustrator 16.0.0, SVG Export Plug-In . SVG Version: 6.00 Build 0)  -->
<!DOCTYPE svg PUBLIC "-//W3C//DTD SVG 1.1//EN" "http://www.w3.org/Graphics/SVG/1.1/DTD/svg11.dtd">
<svg version="1.1" id="Layer_1" xmlns="http://www.w3.org/2000/svg" xmlns:xlink="http://www.w3.org/1999/xlink" x="0px" y="0px"
	 width="22px" height="19.111px" viewBox="0 0 22 19.111" enable-background="new 0 0 22 19.111" xml:space="preserve">
<g>
	<path fill="#fff" d="M19.051,3.651l-2.309-0.012l-2.213-3.3C14.396,0.133,14.167,0,13.926,0h-5.96C7.724,0,7.507,0.133,7.374,0.327L5.089,3.639
		L2.95,3.651C1.33,3.651,0,4.98,0,6.6v9.538c0,1.62,1.33,2.974,2.949,2.974h16.102c1.62,0,2.949-1.354,2.949-2.974V6.6
		C22,4.98,20.671,3.651,19.051,3.651L19.051,3.651z M20.55,16.138c0,0.822-0.677,1.523-1.499,1.523H2.95
		c-0.822,0-1.499-0.701-1.499-1.523V6.6c0-0.822,0.677-1.499,1.499-1.499h2.526c0.242,0,0.459-0.133,0.592-0.326l2.285-3.312h5.185
		l2.2,3.288c0.133,0.194,0.363,0.327,0.593,0.327l2.707,0.024c0.822,0,1.499,0.677,1.499,1.499v9.538H20.55L20.55,16.138z
		 M20.55,16.138"/>
	<path fill="#fff" d="M11.061,5.392c-2.841,0-5.138,2.309-5.138,5.137c0,2.829,2.309,5.138,5.138,5.138c2.828,0,5.138-2.309,5.138-5.138
		C16.198,7.7,13.889,5.392,11.061,5.392L11.061,5.392z M11.061,14.216c-2.031,0-3.687-1.656-3.687-3.688
		c0-2.03,1.656-3.687,3.687-3.687c2.03,0,3.687,1.656,3.687,3.687C14.747,12.56,13.091,14.216,11.061,14.216L11.061,14.216z
		 M11.061,14.216"/>
	<path fill="#fff" d="M18.217,7.519c0,0.153-0.125,0.278-0.278,0.278S17.66,7.672,17.66,7.519c0-0.154,0.125-0.278,0.278-0.278
		S18.217,7.365,18.217,7.519L18.217,7.519z M18.217,7.519"/>
	<path fill="#fff" d="M17.938,6.516c-0.556,0-1.003,0.447-1.003,1.003c0,0.556,0.447,1.003,1.003,1.003c0.557,0,1.003-0.447,1.003-1.003
		C18.941,6.963,18.495,6.516,17.938,6.516L17.938,6.516z M17.938,7.966c-0.254,0-0.447-0.205-0.447-0.447
		c0-0.242,0.206-0.447,0.447-0.447c0.242,0,0.447,0.205,0.447,0.447C18.386,7.761,18.192,7.966,17.938,7.966L17.938,7.966z
		 M17.938,7.966"/>
</g>
</svg>
