<?xml version="1.0" encoding="utf-8"?>
<!-- Generator: Adobe Illustrator 16.0.0, SVG Export Plug-In . SVG Version: 6.00 Build 0)  -->
<!DOCTYPE svg PUBLIC "-//W3C//DTD SVG 1.1//EN" "http://www.w3.org/Graphics/SVG/1.1/DTD/svg11.dtd">
<svg version="1.1" id="Layer_1" xmlns="http://www.w3.org/2000/svg" xmlns:xlink="http://www.w3.org/1999/xlink" x="0px" y="0px"
	 width="50.82px" height="66.306px" viewBox="0 0 50.82 66.306" enable-background="new 0 0 50.82 66.306" xml:space="preserve">
<g>
	<polygon id="DesignBump_3_" fill="#FFFFFF" points="36.354,39.836 33.844,42.046 33.844,18.419 45.428,18.419 25.415,0 
		5.406,18.419 16.899,18.419 16.899,24.293 14.513,22.558 0,36.09 7.324,36.09 7.324,66.306 16.609,66.306 16.609,66.306 
		19.295,66.306 19.295,66.306 20.585,66.306 20.585,36.09 28.727,36.09 19.11,26.766 19.11,15.475 11.048,15.475 25.415,2.26 
		39.781,15.475 31.628,15.475 31.628,44.532 22.103,53.045 30.155,53.045 30.155,66.306 31.373,66.306 31.373,66.306 34.051,66.306 
		34.051,66.306 43.419,66.306 43.419,53.045 50.82,53.045 	"/>
</g>
</svg>
