<?xml version="1.0" encoding="utf-8"?>
<!-- Generator: Adobe Illustrator 16.0.0, SVG Export Plug-In . SVG Version: 6.00 Build 0)  -->
<!DOCTYPE svg PUBLIC "-//W3C//DTD SVG 1.1//EN" "http://www.w3.org/Graphics/SVG/1.1/DTD/svg11.dtd">
<svg version="1.1" id="Layer_1" xmlns="http://www.w3.org/2000/svg" xmlns:xlink="http://www.w3.org/1999/xlink" x="0px" y="0px"
	 width="41.402px" height="41.403px" viewBox="0 0 41.402 41.403" enable-background="new 0 0 41.402 41.403" xml:space="preserve">
<g>
	<defs>
		<rect id="SVGID_1_" width="41.402" height="41.403"/>
	</defs>
	<clipPath id="SVGID_2_">
		<use xlink:href="#SVGID_1_"  overflow="visible"/>
	</clipPath>
	<path clip-path="url(#SVGID_2_)" fill="#FFFFFF" d="M35.347,6.058c-8.075-8.076-21.216-8.076-29.29-0.001
		c-8.076,8.074-8.075,21.216,0.001,29.291c8.073,8.074,21.214,8.074,29.288-0.002C43.421,27.273,43.421,14.13,35.347,6.058
		 M33.087,33.087c-6.829,6.829-17.941,6.83-24.77,0.001c-6.832-6.831-6.831-17.943,0-24.773c6.828-6.828,17.94-6.83,24.771,0.001
		C39.917,15.146,39.916,26.258,33.087,33.087 M12.977,15.098c0-1.338,1.083-2.422,2.421-2.422c1.335,0,2.421,1.084,2.421,2.422
		c0,1.337-1.086,2.42-2.421,2.42C14.06,17.518,12.977,16.435,12.977,15.098 M23.952,15.098c0-1.338,1.085-2.422,2.421-2.422
		c1.338,0,2.422,1.084,2.422,2.422c0,1.337-1.084,2.42-2.422,2.42C25.037,17.518,23.952,16.435,23.952,15.098 M29.675,25.009
		c-1.5,3.472-5.013,5.712-8.949,5.712c-4.022,0-7.557-2.253-9.003-5.738c-0.249-0.598,0.034-1.283,0.631-1.532
		c0.146-0.061,0.3-0.088,0.449-0.088c0.459,0,0.895,0.271,1.082,0.721c1.085,2.611,3.769,4.296,6.841,4.296
		c3.001,0,5.67-1.687,6.8-4.298c0.257-0.593,0.946-0.868,1.539-0.611C29.658,23.729,29.932,24.417,29.675,25.009"/>
</g>
</svg>
