<?xml version="1.0" encoding="utf-8"?>
<!-- Generator: Adobe Illustrator 16.0.0, SVG Export Plug-In . SVG Version: 6.00 Build 0)  -->
<!DOCTYPE svg PUBLIC "-//W3C//DTD SVG 1.1//EN" "http://www.w3.org/Graphics/SVG/1.1/DTD/svg11.dtd">
<svg version="1.1" id="Layer_1" xmlns="http://www.w3.org/2000/svg" xmlns:xlink="http://www.w3.org/1999/xlink" x="0px" y="0px"
	 width="58.663px" height="58.659px" viewBox="0 0 58.663 58.659" enable-background="new 0 0 58.663 58.659" xml:space="preserve">
<g>
	<defs>
		<rect id="SVGID_1_" width="58.663" height="58.659"/>
	</defs>
	<clipPath id="SVGID_2_">
		<use xlink:href="#SVGID_1_"  overflow="visible"/>
	</clipPath>
	<path clip-path="url(#SVGID_2_)" fill="#FFFFFF" d="M7.592,43.478C3.406,43.478,0,46.884,0,51.068c0,4.188,3.406,7.591,7.592,7.591
		s7.591-3.403,7.591-7.591C15.183,46.884,11.778,43.478,7.592,43.478"/>
	<path clip-path="url(#SVGID_2_)" fill="#FFFFFF" d="M1.263,21.852c-0.327-0.008-0.641,0.111-0.875,0.338
		c-0.235,0.226-0.366,0.537-0.366,0.863v9.74c0,0.642,0.505,1.171,1.146,1.2c12.814,0.584,22.918,10.688,23.503,23.504
		c0.029,0.64,0.558,1.146,1.199,1.146h9.742c0.325,0,0.637-0.134,0.864-0.365c0.225-0.233,0.347-0.551,0.337-0.875
		c-0.311-9.34-4.138-18.139-10.774-24.775C19.4,25.99,10.602,22.163,1.263,21.852"/>
	<path clip-path="url(#SVGID_2_)" fill="#FFFFFF" d="M41.476,17.188C30.705,6.417,16.417,0.313,1.248,0.001
		C0.924-0.015,0.612,0.118,0.383,0.343C0.151,0.57,0.021,0.878,0.021,1.202v9.735c0,0.652,0.519,1.185,1.171,1.201
		c24.386,0.613,44.723,20.948,45.333,45.333c0.016,0.651,0.55,1.169,1.201,1.169h9.735c0.322,0,0.632-0.128,0.858-0.359
		c0.226-0.231,0.35-0.543,0.343-0.866C58.35,42.243,52.245,27.957,41.476,17.188"/>
</g>
</svg>
