<?xml version="1.0" encoding="utf-8"?>
<!-- Generator: Adobe Illustrator 16.0.0, SVG Export Plug-In . SVG Version: 6.00 Build 0)  -->
<!DOCTYPE svg PUBLIC "-//W3C//DTD SVG 1.1//EN" "http://www.w3.org/Graphics/SVG/1.1/DTD/svg11.dtd">
<svg version="1.1" id="Layer_1" xmlns="http://www.w3.org/2000/svg" xmlns:xlink="http://www.w3.org/1999/xlink" x="0px" y="0px"
	 width="69px" height="89.979px" viewBox="0 0 69 89.979" enable-background="new 0 0 69 89.979" xml:space="preserve">
<g>
	<polyline fill="#fff" points="37.311,52.631 38.743,84.376 34.39,88.307 30.11,84.431 31.487,52.631 	"/>
	<path fill="#fff" d="M1.708,74.253c0.919,0,1.671-0.753,1.671-1.672v-9.258c0-1.47,0.643-2.848,1.763-3.767
		c8.249-6.778,17.177-11.279,18.886-12.124c0.79-0.386,1.268-1.157,1.268-2.039V32.37c0-0.552-0.275-1.085-0.735-1.378
		c-1.23-0.827-1.984-2.205-1.984-3.674V13.833c0-5.786,4.703-10.489,10.49-10.489h2.903c5.786,0,10.489,4.703,10.489,10.489v13.503
		c0,1.488-0.734,2.848-1.984,3.674c-0.459,0.312-0.734,0.827-0.734,1.377v13.025c0,0.882,0.496,1.653,1.268,2.039
		c1.709,0.826,10.654,5.346,18.885,12.124c1.121,0.919,1.765,2.297,1.765,3.767v9.259c0,0.918,0.752,1.672,1.671,1.672
		c0.918,0,1.672-0.754,1.672-1.672v-9.259c0-2.462-1.084-4.777-2.994-6.339c-7.808-6.41-16.222-10.875-18.94-12.234V33.232
		c1.708-1.47,2.719-3.601,2.719-5.897V13.833C49.784,6.209,43.575,0,35.951,0h-2.902c-7.625,0-13.833,6.209-13.833,13.833v13.503
		c0,2.278,1.01,4.427,2.719,5.897V44.77c-2.719,1.359-11.133,5.824-18.94,12.234C1.103,58.565,0,60.88,0,63.342v9.259
		C0.055,73.5,0.79,74.253,1.708,74.253L1.708,74.253z M1.708,74.253"/>
	<path fill="#fff" d="M39.001,47.489c-0.919,0-1.672,0.752-1.672,1.671c0,0.827-0.35,1.562-0.919,2.076c-0.11,0.073-0.22,0.147-0.313,0.257
		c-0.44,0.313-0.992,0.478-1.58,0.478c-1.542,0-2.811-1.267-2.811-2.811c0-0.919-0.752-1.671-1.671-1.671s-1.672,0.752-1.672,1.671
		c0,1.47,0.533,2.829,1.396,3.895l-1.36,31.322c-0.018,0.496,0.184,0.974,0.551,1.305l4.28,3.876
		c0.313,0.294,0.717,0.422,1.122,0.422c0.403,0,0.808-0.146,1.12-0.422l4.354-3.932c0.366-0.331,0.569-0.809,0.551-1.305
		l-1.396-30.955c1.028-1.101,1.672-2.571,1.672-4.188C40.673,48.241,39.919,47.489,39.001,47.489L39.001,47.489z M34.39,86.067
		l-2.591-2.333l1.231-28.64c0.478,0.128,0.973,0.183,1.488,0.183c0.423,0,0.828-0.037,1.231-0.128l1.286,28.492L34.39,86.067z
		 M34.39,86.067"/>
</g>
</svg>
