<?xml version="1.0" encoding="utf-8"?>
<!-- Generator: Adobe Illustrator 16.0.0, SVG Export Plug-In . SVG Version: 6.00 Build 0)  -->
<!DOCTYPE svg PUBLIC "-//W3C//DTD SVG 1.1//EN" "http://www.w3.org/Graphics/SVG/1.1/DTD/svg11.dtd">
<svg version="1.1" id="Layer_1" xmlns="http://www.w3.org/2000/svg" xmlns:xlink="http://www.w3.org/1999/xlink" x="0px" y="0px"
	 width="82px" height="91.037px" viewBox="-318.971 300.186 82 91.037" enable-background="new -318.971 300.186 82 91.037"
	 xml:space="preserve">
<path fill="#fff" fill-rule="evenodd" clip-rule="evenodd" d="M-285.361,391.223c0-0.675,0-1.349,0-2.081c5.585,0,11.167,0,16.905,0
	c0,0.688,0,1.384,0,2.081C-274.091,391.223-279.726,391.223-285.361,391.223z"/>
<path fill="#fff" fill-rule="evenodd" clip-rule="evenodd" d="M-244.858,355.029c-1.986,0-3.784,0-5.542,0c0,1.624-0.014,3.099,0.004,4.572
	c0.016,1.215,0.103,2.43,0.101,3.646c-0.005,2.885-2.021,4.825-4.896,4.791c-2.075-0.025-4.151-0.002-6.228,0.003
	c-0.085,0-0.171,0.037-0.349,0.079c0,4.033,0,8.081,0,12.2c-10.245,0-20.396,0-30.657,0c0-0.482-0.031-0.951,0.005-1.414
	c0.461-5.941-1.313-11.278-4.317-16.309c-1.745-2.923-3.595-5.808-5.055-8.874c-3.092-6.495-4.357-13.354-2.34-20.391
	c2.75-9.594,9.142-15.842,18.677-18.685c14.44-4.305,27.866,3.79,32.893,15.541c1.105,2.583,1.286,5.275,1.158,8.017
	c-0.057,1.214,0.196,2.309,0.699,3.422c1.852,4.101,3.627,8.236,5.43,12.359C-245.158,354.25-245.059,354.522-244.858,355.029z
	 M-284.781,360.828c-0.707,0-1.148,0.012-1.589-0.002c-2.685-0.082-4.637-2.692-3.931-5.283c0.323-1.185,1.086-1.958,2.324-2.183
	c1.394-0.253,2.856,0.725,3.476,2.339c0.326,0.849,0.601,1.718,0.959,2.754c1.609-0.77,3.122-1.494,4.703-2.25
	c-0.506-0.561-0.854-0.923-1.176-1.309c-0.97-1.16-1.311-2.491-1.081-3.985c0.294-1.91,1.76-3.409,3.472-3.519
	c2.135-0.137,3.65,0.928,4.232,3.001c0.446,1.587,0.187,3.056-0.838,4.36c-0.36,0.458-0.767,0.879-1.296,1.479
	c1.587,0.766,3.085,1.488,4.656,2.245c0.203-0.599,0.303-1.001,0.473-1.372c0.404-0.883,0.706-1.856,1.29-2.606
	c1.381-1.772,3.922-1.481,4.844,0.463c1.101,2.324-0.4,5.268-2.93,5.7c-0.695,0.118-1.407,0.133-2.188,0.202
	c-1.594,5.709-2.628,11.562-3.523,17.478c3.051,0,6.055,0,9.127,0c0-4.12,0-8.171,0-12.332c0.385,0,0.704,0,1.022,0
	c2.58,0,5.16,0.009,7.74-0.004c1.829-0.009,2.797-1.005,2.74-2.848c-0.063-2.045-0.192-4.087-0.255-6.132
	c-0.039-1.238-0.007-2.479-0.007-3.906c1.435,0,2.92,0,4.509,0c-0.167-0.446-0.246-0.696-0.352-0.935
	c-1.224-2.761-2.355-5.568-3.708-8.264c-1.137-2.265-1.67-4.57-1.456-7.088c0.251-2.946-0.677-5.616-2.112-8.13
	c-5.049-8.845-14.871-14.478-25.64-12.769c-9.471,1.503-16.236,6.613-19.761,15.517c-3.032,7.658-1.793,15.213,1.77,22.432
	c1.124,2.276,2.581,4.39,3.917,6.559c3.309,5.371,5.602,11.039,5.23,17.507c-0.008,0.136,0.048,0.275,0.076,0.419
	c2.884,0,5.721,0,8.715,0C-282.503,372.465-283.645,366.633-284.781,360.828z M-282.652,360.485
	c1.146,5.905,2.307,11.881,3.47,17.872c1.389,0,2.83,0,4.147,0c1.176-6.052,2.338-12.028,3.461-17.809
	c-1.749-0.932-3.508-1.881-5.283-2.799c-0.184-0.095-0.506-0.082-0.695,0.017C-279.276,358.663-280.984,359.591-282.652,360.485z
	 M-277.068,355.039c0.575-0.824,1.181-1.488,1.543-2.265c0.429-0.919,0.196-1.864-0.497-2.621c-0.481-0.525-1.118-0.666-1.781-0.372
	c-0.939,0.416-1.175,1.25-1.208,2.183C-279.059,353.323-278.109,354.058-277.068,355.039z M-268.791,358.631
	c1.63,0.257,2.573-0.549,2.551-2.107c-0.005-0.343-0.307-0.683-0.472-1.024c-0.358,0.197-0.879,0.306-1.045,0.608
	C-268.174,356.87-268.432,357.72-268.791,358.631z M-285.648,358.652c-0.424-0.95-0.787-1.864-1.246-2.727
	c-0.117-0.221-0.614-0.454-0.799-0.372c-0.253,0.112-0.493,0.503-0.536,0.804C-288.453,357.889-287.433,358.855-285.648,358.652z"/>
<path fill="#fff" fill-rule="evenodd" clip-rule="evenodd" d="M-289.532,386.169c0-0.674,0-1.313,0-2.009c8.43,0,16.822,0,25.269,0
	c0,0.656,0,1.295,0,2.009C-272.643,386.169-281.035,386.169-289.532,386.169z"/>
<path fill="#fff" fill-rule="evenodd" clip-rule="evenodd" d="M-260.963,314.16c-0.654-0.375-1.211-0.695-1.85-1.062
	c1.543-2.676,3.056-5.3,4.616-8.005c0.616,0.35,1.193,0.679,1.856,1.057C-257.881,308.819-259.395,311.442-260.963,314.16z"/>
<path fill="#fff" fill-rule="evenodd" clip-rule="evenodd" d="M-312.953,362.637c-0.361-0.618-0.685-1.173-1.074-1.84
	c2.66-1.539,5.301-3.067,8.005-4.632c0.367,0.628,0.704,1.206,1.077,1.845C-307.638,359.566-310.261,361.082-312.953,362.637z"/>
<path fill="#fff" fill-rule="evenodd" clip-rule="evenodd" d="M-276.784,300.186c0,3.062,0,6.052,0,9.112c-0.685,0-1.345,0-2.063,0
	c0-3.018,0-6.028,0-9.112C-278.185,300.186-277.528,300.186-276.784,300.186z"/>
<path fill="#fff" fill-rule="evenodd" clip-rule="evenodd" d="M-299.339,306.078c0.658-0.381,1.214-0.703,1.848-1.069
	c1.552,2.688,3.071,5.32,4.618,8c-0.623,0.366-1.179,0.692-1.838,1.08C-296.25,311.423-297.768,308.797-299.339,306.078z"/>
<path fill="#fff" fill-rule="evenodd" clip-rule="evenodd" d="M-250.868,324.334c2.704-1.564,5.312-3.073,7.995-4.625
	c0.353,0.596,0.694,1.17,1.089,1.836c-2.671,1.545-5.292,3.061-8.005,4.63C-250.149,325.562-250.485,324.988-250.868,324.334z"/>
<path fill="#fff" fill-rule="evenodd" clip-rule="evenodd" d="M-304.94,324.362c-0.377,0.633-0.718,1.205-1.093,1.834
	c-2.697-1.557-5.323-3.073-7.988-4.611c0.353-0.613,0.673-1.171,1.063-1.848C-310.28,321.282-307.636,322.807-304.94,324.362z"/>
<path fill="#fff" fill-rule="evenodd" clip-rule="evenodd" d="M-309.811,340.187c0,0.674,0,1.312,0,2.016c-3.054,0-6.083,0-9.16,0
	c0-0.676,0-1.314,0-2.016C-315.921,340.187-312.891,340.187-309.811,340.187z"/>
<path fill="#fff" fill-rule="evenodd" clip-rule="evenodd" d="M-246.107,342.214c0-0.716,0-1.352,0-2.038c3.055,0,6.059,0,9.136,0
	c0,0.669,0,1.326,0,2.038C-240.003,342.214-243.008,342.214-246.107,342.214z"/>
<path fill="#fff" fill-rule="evenodd" clip-rule="evenodd" d="M-265.857,371.685c-0.692,0-1.311,0-1.998,0c0-0.684,0-1.344,0-2.061
	c0.646,0,1.285,0,1.998,0C-265.857,370.284-265.857,370.941-265.857,371.685z"/>
<path fill="#fff" fill-rule="evenodd" clip-rule="evenodd" d="M-267.889,376.92c0-0.687,0-1.326,0-2.018c0.694,0,1.354,0,2.059,0
	c0,0.67,0,1.31,0,2.018C-266.482,376.92-267.142,376.92-267.889,376.92z"/>
</svg>
